/* XPM */
static char * snapcraft_gui_xpm[] = {
"32 32 140 2",
"  	c None",
". 	c #E95420",
"+ 	c #E84C16",
"@ 	c #EF8661",
"# 	c #EF845F",
"$ 	c #E9531F",
"% 	c #E9521D",
"& 	c #F3A083",
"* 	c #EC6638",
"= 	c #E8501A",
"- 	c #E84B14",
"; 	c #EF855F",
"> 	c #FCE7DF",
", 	c #FFFFFF",
"' 	c #FCE6DE",
") 	c #F08965",
"! 	c #E94F19",
"~ 	c #F3A488",
"{ 	c #FFFEFE",
"] 	c #F8C8B7",
"^ 	c #EC683A",
"/ 	c #E8501B",
"( 	c #E84C15",
"_ 	c #ED7247",
": 	c #F7C3B0",
"< 	c #EF815B",
"[ 	c #FEF4F1",
"} 	c #F08D6A",
"| 	c #E9521E",
"1 	c #F08661",
"2 	c #FCEAE4",
"3 	c #FCE4DC",
"4 	c #F6B69F",
"5 	c #FBDFD5",
"6 	c #FBDED5",
"7 	c #F8C3B1",
"8 	c #F9CEBF",
"9 	c #F6B59E",
"0 	c #FEF5F2",
"a 	c #F7C4B2",
"b 	c #F6BAA5",
"c 	c #E84911",
"d 	c #EC6A3D",
"e 	c #FDF0EC",
"f 	c #FCEBE5",
"g 	c #F39F82",
"h 	c #F3A184",
"i 	c #F7BCA8",
"j 	c #F8C9B8",
"k 	c #F6B6A0",
"l 	c #F6B7A1",
"m 	c #FFFDFD",
"n 	c #E84912",
"o 	c #E84D17",
"p 	c #F9CEBE",
"q 	c #F6BAA4",
"r 	c #FAD7CA",
"s 	c #FADACE",
"t 	c #F6B9A4",
"u 	c #FCE8E0",
"v 	c #FCE5DC",
"w 	c #F7C0AC",
"x 	c #F5AE96",
"y 	c #F7BDA8",
"z 	c #FCE5DD",
"A 	c #FCE9E2",
"B 	c #F8C9B9",
"C 	c #F7BCA7",
"D 	c #F6B8A2",
"E 	c #FBE2D9",
"F 	c #F7BAA4",
"G 	c #F6B49D",
"H 	c #FAD6CA",
"I 	c #FAD4C7",
"J 	c #F7BEAA",
"K 	c #F6B29B",
"L 	c #F7BFAC",
"M 	c #EA5E2C",
"N 	c #F8C2AF",
"O 	c #FCE8E1",
"P 	c #F6BBA6",
"Q 	c #FAD8CD",
"R 	c #FAD5C9",
"S 	c #F6BBA5",
"T 	c #F3A185",
"U 	c #F5AA91",
"V 	c #EA5D2B",
"W 	c #E9511D",
"X 	c #F4A78C",
"Y 	c #F9D3C6",
"Z 	c #F9D1C3",
"` 	c #FAD8CC",
" .	c #F7B9A4",
"..	c #FBDDD3",
"+.	c #F9D0C1",
"@.	c #F29A7C",
"#.	c #FDF0EB",
"$.	c #F6B59F",
"%.	c #F9D5C8",
"&.	c #F8C7B6",
"*.	c #FAD1C4",
"=.	c #F5B49C",
"-.	c #FDF3EF",
";.	c #FBDBD0",
">.	c #E84F19",
",.	c #FDEFEB",
"'.	c #F29574",
").	c #F9D2C4",
"!.	c #F9D0C2",
"~.	c #F1906F",
"{.	c #FDF2EE",
"].	c #FAD9CD",
"^.	c #F8C4B2",
"/.	c #F9D2C5",
"(.	c #FCECE5",
"_.	c #F9D1C2",
":.	c #F7C3B1",
"<.	c #FDF1ED",
"[.	c #F3A386",
"}.	c #F4A68B",
"|.	c #F7BBA7",
"1.	c #F6B8A3",
"2.	c #E9511C",
"3.	c #E84E19",
"4.	c #ED7045",
"5.	c #FAD1C3",
"6.	c #F8C1AF",
"7.	c #FBE0D7",
"8.	c #F7BBA6",
"9.	c #F9CEC0",
"0.	c #EC6D40",
"a.	c #E84F1A",
"b.	c #E84E18",
"c.	c #ED7145",
"d.	c #F4A68C",
"e.	c #F29D80",
"f.	c #ED6E42",
"g.	c #ED6F43",
"h.	c #EC6C3F",
"i.	c #EC6F44",
"                        . . . . . . . .                         ",
"                  . . . . . . . . . . . . . .                   ",
"              . . . . . . . . . . . . . . . . . .               ",
"            . . . . . . . . . . . . . . . . . . . .             ",
"          . . . . . . . . . . . . . . . . . . . . . .           ",
"        . . . . . . . . . . . . . . . . . . . . . . . .         ",
"      . . . . . . . . . . . . . . . . . . . . . . . . . .       ",
"    . . . . . . . . . . . . + @ # + . . $ % & * = . . . . .     ",
"    . . . . . . . . . . - ; > , , ' ) ! ~ { , , ] ^ / . . .     ",
"  . . . . . . . . . ( _ : , , , , , < [ , , , , , , } | . . .   ",
"  . . . . . . . + 1 2 , 3 4 5 , , 6 7 8 9 0 , , a b , c . . .   ",
"  . . . . . . d e , , , , , f g h [ i , , j k l m , , n . . .   ",
". . . . . . o p q r , , , s t u v w x , , , y , , , , n . . . . ",
". . . . . . o z , A 4 B C > , , , , z D E , F , , , , n . . . . ",
". . . . . . o z , , , G y H , , , , I J K , F , , L M . . . . . ",
". . . . . . o A , , , N , O P Q R S f , T C U ] V W . . . . . . ",
". . . . . . / X Y , , N , , , Z ` , , ,  ., ..+.@.W . . . . . . ",
". . . . . . o u #.$.%.&., , , 5 z , , , L *.=.-.;.>.. . . . . . ",
". . . . . . o z , , ,.'.)., , 5 z , , !.~.{., , ].>.. . . . . . ",
". . . . . . o z , , , ^.{.k /.z (._.l 0 i , , , ].>.. . . . . . ",
"  . . . . . = :., , , N , , <.[.}.-., , |., , , 1.2.. . . . .   ",
"  . . . . . . 3.4.5., 6., , , 7.> , , , 8., 9.0.a.. . . . . .   ",
"  . . . . . . . . b.c.d., , , 5 z , , , e.f.3.. . . . . . . .   ",
"    . . . . . . . . . / g./., 5 z , +.h.2.. . . . . . . . .     ",
"    . . . . . . . . . . . >.i.9 l 0.a.. . . . . . . . . .       ",
"      . . . . . . . . . . . . 2.2.. . . . . . . . . . . .       ",
"        . . . . . . . . . . . . . . . . . . . . . . . .         ",
"          . . . . . . . . . . . . . . . . . . . . . .           ",
"            . . . . . . . . . . . . . . . . . . . .             ",
"              . . . . . . . . . . . . . . . . .                 ",
"                  . . . . . . . . . . . . . .                   ",
"                        . . . . . . . .                         "};
